# xmcd
#
# Track frame offsets: 
#        150
#        15159
#        27134
#        38139
#        53406
#        64884
#        78036
#        96896
#        108336
#        119253
#        133707
#        147455
#        160391
#
# Disc length: 2339 seconds
#
# Revision: 10
# Processed by: cddbd v1.5.2PL0 Copyright (c) Steve Scherf et al.
# Submitted via: ExactAudioCopyFreeDBPlugin 1.0
#
DISCID=9e09210d
DTITLE=Adams, Ryan - Easy tiger
DYEAR=2007
DGENRE=Rock
TTITLE0=Goodnight Rose
TTITLE1=Two
TTITLE2=Everybody knows
TTITLE3=Halloweenhead
TTITLE4=Oh My God, Whatever, Etc.
TTITLE5=Tears Of gold
TTITLE6=The Sun Also Sets
TTITLE7=Off Broadway
TTITLE8=Pearls On A String
TTITLE9=Rip Off
TTITLE10=Two Hearts
TTITLE11=These Girls
TTITLE12=I Taught Myself How To Grow Old
EXTD=
EXTT0=
EXTT1=
EXTT2=
EXTT3=
EXTT4=
EXTT5=
EXTT6=
EXTT7=
EXTT8=
EXTT9=
EXTT10=
EXTT11=
EXTT12=
PLAYORDER=
